<svg xmlns="http://www.w3.org/2000/svg" xmlns:xlink="http://www.w3.org/1999/xlink" clip-rule="evenodd" fill-rule="evenodd" stroke-linejoin="round" stroke-miterlimit="2" viewBox="0 0 100 100"><g fill-rule="nonzero"><path d="m4.7 0h90.6c2.6 0 4.7 2.1 4.7 4.7v90.6c0 2.6-2.1 4.7-4.7 4.7h-90.6c-2.6 0-4.7-2.1-4.7-4.7v-90.6c0-2.6 2.1-4.7 4.7-4.7z" fill="#e71356"/><path d="m46.8 61v18.5h-5.1v-18.5h-3.5c-1 0-1.8-.9-1.9-1.9v-2.8h5.4v-5.3c0-4.6 2.3-8.4 7.7-8.4 2.3-.1 4.6.6 6.5 1.8l-1 4.3c-1.6-.7-3.3-1.2-5.1-1.2-2 0-3 1.2-3 3.5v5.4h7.9v4.6z" fill="#fff" transform="matrix(1.53221 0 0 1.46878 -7.10088745842 -39.08716795168)"/><path d="m32 56.5-.8 3c-.2 1-1.2 1.6-2.2 1.3-.7-.1-1.4-.2-2.1-.2-3.2 0-5.5 2.2-5.5 6.2v12.8h-5.1v-23.2h5v2.6c1.5-2.1 4.1-3.4 6.7-3.2 1.5.1 2.8.3 4 .7z" fill="#fff" transform="matrix(1.53221 0 0 1.46878 -4.5062859463 -39.08716795168)"/></g></svg>