<svg viewBox="0 0 35 35" xmlns="http://www.w3.org/2000/svg" xmlns:xlink="http://www.w3.org/1999/xlink" width="35.000000" height="35.000000" fill="none">
	<rect id="Person Portal" width="35.000000" height="35.000000" x="0.000000" y="0.000000" fill="rgb(255,255,255)" fill-opacity="0" />
	<path id="Vector" d="M16.46 13.14C17.8685 12.4331 18.9973 11.2715 19.6636 9.8433C20.3299 8.41511 20.4948 6.80386 20.1315 5.27032C19.7683 3.73677 18.8982 2.37068 17.662 1.39313C16.4259 0.415571 14.896 -0.116241 13.32 -0.116241C11.744 -0.116241 10.2142 0.415571 8.97802 1.39313C7.74186 2.37068 6.87175 3.73677 6.5085 5.27032C6.14525 6.80386 6.31012 8.41511 6.97643 9.8433C7.64274 11.2715 8.77149 12.4331 10.18 13.14C7.18854 13.9979 4.56621 15.824 2.72398 18.3322C0.881742 20.8404 -0.0762889 23.8889 1.82521e-05 27L26.64 27C26.7163 23.8889 25.7583 20.8404 23.9161 18.3322C22.0738 15.824 19.4515 13.9979 16.46 13.14L16.46 13.14Z" fill="rgb(231,19,86)" fill-rule="nonzero" />
	<path id="Vector" d="M24.13 35C30.1333 35 35 30.1333 35 24.13C35 18.1267 30.1333 13.26 24.13 13.26C18.1267 13.26 13.26 18.1267 13.26 24.13C13.26 30.1333 18.1267 35 24.13 35Z" fill="rgb(171,153,255)" fill-rule="nonzero" />
	<path id="Vector" d="M19.45 14.34C17.1464 15.4283 15.3012 17.2954 14.24 19.6117C13.1788 21.928 12.9699 24.5447 13.65 27L26.65 27C26.6898 24.4391 26.0431 21.9143 24.7769 19.6879C23.5107 17.4615 21.6714 15.6149 19.45 14.34L19.45 14.34Z" fill="rgb(92,0,220)" fill-rule="nonzero" />
</svg>
