<svg viewBox="0 0 48 64" xmlns="http://www.w3.org/2000/svg" xmlns:xlink="http://www.w3.org/1999/xlink" width="48.000000" height="64.000000" fill="none" clip-path="url(#clipPath_0)" customFrame="url(#clipPath_0)">
	<defs>
		<clipPath id="clipPath_0">
			<rect width="48.000000" height="64.000000" x="0.000000" y="0.000000" rx="8.000000" fill="rgb(255,255,255)" />
		</clipPath>
		<clipPath id="clipPath_1">
			<rect width="32.000000" height="32.000000" x="12.000000" y="8.000000" fill="rgb(255,255,255)" />
		</clipPath>
	</defs>
	<rect id="Nav Logo" width="48.000000" height="64.000000" x="0.000000" y="0.000000" rx="8.000000" />
	<g id="Small" customFrame="url(#clipPath_1)">
		<rect id="Small" width="32.000000" height="32.000000" x="12.000000" y="8.000000" fill="rgb(255,255,255)" fill-opacity="0" />
		<path id="Combined Shape" d="M40.6765 19.767C41.4063 20.4744 42.5853 20.4744 43.2702 19.767C44 19.0597 44 17.993 43.2702 17.2856C42.574 16.5783 41.4063 16.5783 40.6765 17.2856C39.9804 17.993 39.9804 19.0597 40.6765 19.767M32.9965 12.3453C33.7263 13.0526 34.9053 13.0526 35.5902 12.3453C36.32 11.6379 36.32 10.5712 35.5902 9.86387C34.894 9.1565 33.7263 9.1565 32.9965 9.86387C32.3116 10.5712 32.3116 11.6267 32.9965 12.3453M34.6919 25.5607C35.4218 26.2681 36.6007 26.2681 37.2856 25.5607C38.0154 24.8533 38.0154 23.7867 37.2856 23.0793C36.5895 22.3719 35.4218 22.3719 34.6919 23.0793C33.9958 23.7867 33.9958 24.8533 34.6919 25.5607M19.4218 28.8056L19.0961 30.1081C18.9726 30.6021 18.4786 30.9277 17.9621 30.8154C17.6365 30.7481 17.3109 30.7144 17.0189 30.7144C15.4919 30.7144 14.4028 31.7474 14.4028 33.5776L14.4028 39.4386L12 39.4386L12 28.7832L14.3804 28.7832L14.3804 29.9846C15.1102 28.9628 16.233 28.5025 17.5691 28.5025C18.2989 28.5137 18.8716 28.6035 19.4218 28.8056M26.1586 30.9053L26.1586 39.4498L23.7446 39.4498L23.7446 30.9053L22.0828 30.9053C21.5888 30.9053 21.1846 30.5123 21.1846 30.0407L21.1846 28.7944L23.7446 28.7944L23.7446 26.3018C23.7446 24.1684 24.8561 22.4618 27.4274 22.4618C28.7298 22.4618 29.6618 22.7874 30.4926 23.259L29.9986 25.2126C29.4372 24.8983 28.3256 24.64 27.5846 24.64C26.6526 24.64 26.1474 25.2239 26.1474 26.2905L26.1474 28.7832L29.9088 28.7832L29.9088 30.894L26.1586 30.894L26.1586 30.9053Z" fill="rgb(237,26,93)" fill-rule="evenodd" />
		<path id="Combined Shape" d="M35.5902 12.3453C36.32 11.6379 36.32 10.5712 35.5902 9.86387C34.894 9.1565 33.7263 9.1565 32.9965 9.86387C32.3116 10.5712 32.3116 11.6267 32.9965 12.3453C33.7263 13.0526 34.9053 13.0526 35.5902 12.3453ZM40.6765 19.767C39.9804 19.0597 39.9804 17.993 40.6765 17.2856C41.4063 16.5783 42.574 16.5783 43.2702 17.2856C44 17.993 44 19.0597 43.2702 19.767C42.5853 20.4744 41.4063 20.4744 40.6765 19.767ZM26.1586 30.894L29.9088 30.894L29.9088 28.7832L26.1474 28.7832L26.1474 26.2905C26.1474 25.2239 26.6526 24.64 27.5846 24.64C28.3256 24.64 29.4372 24.8983 29.9986 25.2126L30.4926 23.259C29.6618 22.7874 28.7298 22.4618 27.4274 22.4618C24.8561 22.4618 23.7446 24.1684 23.7446 26.3018L23.7446 28.7944L21.1846 28.7944L21.1846 30.0407C21.1846 30.5123 21.5888 30.9053 22.0828 30.9053L23.7446 30.9053L23.7446 39.4498L26.1586 39.4498L26.1586 30.894ZM34.6919 25.5607C33.9958 24.8533 33.9958 23.7867 34.6919 23.0793C35.4218 22.3719 36.5895 22.3719 37.2856 23.0793C38.0154 23.7867 38.0154 24.8533 37.2856 25.5607C36.6007 26.2681 35.4218 26.2681 34.6919 25.5607ZM19.0961 30.1081C18.9726 30.6021 18.4786 30.9277 17.9621 30.8154C17.6365 30.7481 17.3109 30.7144 17.0189 30.7144C15.4919 30.7144 14.4028 31.7474 14.4028 33.5776L14.4028 39.4386L12 39.4386L12 28.7832L14.3804 28.7832L14.3804 29.9846C15.1102 28.9628 16.233 28.5025 17.5691 28.5025C18.2989 28.5137 18.8716 28.6035 19.4218 28.8056L19.0961 30.1081Z" fill-rule="evenodd" stroke="rgb(150.96,150.96,150.96)" stroke-opacity="0" stroke-width="0" />
	</g>
</svg>
